<svg width="170" height="55" viewBox="0 0 170 55" fill="none" xmlns="http://www.w3.org/2000/svg">
<path d="M48.4144 33.3023C48.2262 38.2651 51.8578 42.0684 57.1256 42.0684H78.718C78.9723 42.0684 79.2263 42.0595 79.4795 42.0421L80.6547 35.9334H59.3524C57.5877 35.9334 56.3126 34.7952 56.111 33.2256C53.9006 33.2777 51.6749 33.3041 49.4356 33.3041C49.0949 33.3041 48.7545 33.3035 48.4144 33.3023Z" fill="#F27E00"/>
<path d="M93.0475 29.8021L94.5708 37.2501C95.9313 43.9026 105.5 43.9026 109.308 37.2502L116.575 24.5514C113.474 25.4374 110.28 26.2638 107.001 27.027L102.833 34.3101L101.586 28.2137C98.7936 28.7886 95.9459 29.3187 93.0475 29.8021Z" fill="#F27E00"/>
<path d="M124.042 22.2439L122.215 31.7407C121.118 37.4445 124.937 42.0684 130.745 42.0684H152.338C158.146 42.0684 163.744 37.4445 164.842 31.7407L168.961 10.3277C169.861 5.65124 167.456 1.70074 163.359 0.429332C161.363 2.39454 159.122 4.29905 156.653 6.13498H157.592C159.77 6.13498 161.202 7.86893 160.791 10.0079L156.548 32.0605C156.137 34.1994 154.037 35.9334 151.859 35.9334H132.972C130.794 35.9334 129.362 34.1994 129.773 32.0605L132.235 19.2635C129.601 20.307 126.867 21.3015 124.042 22.2439Z" fill="#F27E00"/>
<path d="M56.6108 29.6841C54.0832 29.7561 51.5353 29.7944 48.9692 29.7981L52.7151 10.3277C53.8124 4.62387 59.4106 0 65.2191 0H84.6902L86.0829 6.13497H65.0853C62.9071 6.13497 60.8078 7.86892 60.3963 10.0079L58.6965 18.8431H83.9872L82.8281 24.8676H57.5374L56.6108 29.6841Z" fill="#145540"/>
<path d="M159.1 0H138.839C133.03 0 127.432 4.62387 126.335 10.3277L124.825 18.1751C127.662 17.1955 130.403 16.1626 133.04 15.0796L134.016 10.0079C134.427 7.86892 136.527 6.13497 138.705 6.13497H150.654C153.751 4.17909 156.574 2.13039 159.1 0Z" fill="#145540"/>
<path d="M119.17 20.0173C116.036 20.9796 112.8 21.8797 109.47 22.7135L122.469 0H130.626L119.17 20.0173Z" fill="#145540"/>
<path d="M100.862 24.6765C98.0707 25.2533 95.2234 25.7854 92.3252 26.2706L86.9523 0H95.8156L100.862 24.6765Z" fill="#145540"/>
<path d="M6.70988 21.4724L22.2664 7.88782L38.6994 21.4724V42.0684H28.1823V31.5513H17.227V42.0684H6.70988V21.4724Z" fill="#F27E00"/>
<path d="M0 19.636L22.0473 0L44.7953 18.8861L43.058 20.96L22.2962 3.56763L1.79013 21.6645L0 19.636Z" fill="#145540"/>
<path d="M6.70988 2.62927H12.4066V6.13497L6.70988 11.3935V2.62927Z" fill="#145540"/>
<path d="M14.1893 46.6394H16.2874V54.8228H14.1893V51.1975H9.17702V54.8228H7.07886V46.6394H9.17702V49.9104H14.1893V46.6394Z" fill="#145540"/>
<path d="M22.4279 50.7252C22.4279 51.1739 22.5056 51.5833 22.661 51.9533C22.8164 52.3154 23.0385 52.6264 23.3271 52.8862C23.6268 53.1381 23.9876 53.3349 24.4095 53.4766C24.8313 53.6183 25.3087 53.6892 25.8416 53.6892C26.3633 53.6892 26.8351 53.6183 27.257 53.4766C27.6788 53.3349 28.0341 53.1381 28.3227 52.8862C28.6225 52.6264 28.85 52.3154 29.0055 51.9533C29.1609 51.5833 29.2386 51.1739 29.2386 50.7252C29.2386 50.2765 29.1609 49.871 29.0055 49.5089C28.85 49.1389 28.6225 48.8279 28.3227 48.576C28.0341 48.3162 27.6788 48.1155 27.257 47.9738C26.8351 47.8321 26.3633 47.7612 25.8416 47.7612C25.3087 47.7612 24.8313 47.8321 24.4095 47.9738C23.9876 48.1155 23.6268 48.3162 23.3271 48.576C23.0385 48.8358 22.8164 49.1468 22.661 49.5089C22.5056 49.871 22.4279 50.2765 22.4279 50.7252ZM31.4367 50.7252C31.4367 51.4258 31.2868 52.0438 30.9871 52.5792C30.6984 53.1145 30.2988 53.5632 29.7881 53.9254C29.2885 54.2796 28.7002 54.5473 28.023 54.7284C27.3458 54.9094 26.6242 55 25.8582 55C25.0922 55 24.3651 54.9094 23.6768 54.7284C22.9996 54.5473 22.4057 54.2796 21.895 53.9254C21.3955 53.5632 20.9958 53.1145 20.6961 52.5792C20.3963 52.0438 20.2465 51.4258 20.2465 50.7252C20.2465 50.0245 20.3963 49.4105 20.6961 48.883C20.9958 48.3477 21.401 47.899 21.9117 47.5368C22.4334 47.1747 23.0329 46.9031 23.7101 46.722C24.3873 46.541 25.1033 46.4504 25.8582 46.4504C26.6131 46.4504 27.3291 46.541 28.0063 46.722C28.6835 46.9031 29.2719 47.1747 29.7715 47.5368C30.2821 47.899 30.6873 48.3477 30.9871 48.883C31.2868 49.4105 31.4367 50.0245 31.4367 50.7252Z" fill="#145540"/>
<path d="M37.9181 46.6394C38.1623 46.9385 38.4343 47.3046 38.734 47.7376C39.0338 48.1706 39.3391 48.6272 39.6499 49.1074C39.9607 49.5798 40.266 50.0639 40.5658 50.5599C40.8766 51.048 41.1597 51.5006 41.415 51.9179C41.6703 51.5006 41.9479 51.048 42.2476 50.5599C42.5474 50.0639 42.8526 49.5798 43.1635 49.1074C43.4743 48.6272 43.7796 48.1706 44.0793 47.7376C44.3791 47.3046 44.6511 46.9385 44.8953 46.6394H46.7936C46.8935 47.2377 46.9879 47.8754 47.0767 48.5524C47.1655 49.2216 47.2432 49.9104 47.3098 50.6189C47.3876 51.3196 47.4542 52.0281 47.5097 52.7445C47.5763 53.453 47.6318 54.1458 47.6762 54.8228H45.6113C45.5669 53.8703 45.5114 52.8901 45.4448 51.8825C45.3893 50.8748 45.3005 49.8986 45.1784 48.9539C45.0563 49.135 44.9119 49.3514 44.7454 49.6034C44.5789 49.8553 44.4013 50.1308 44.2126 50.43C44.0238 50.7213 43.8296 51.0244 43.6297 51.3393C43.441 51.6542 43.2523 51.9612 43.0636 52.2603C42.8859 52.5516 42.7194 52.8272 42.564 53.0869C42.4086 53.3389 42.2754 53.5554 42.1644 53.7364H40.5991C40.488 53.5554 40.3548 53.3349 40.1994 53.0751C40.044 52.8153 39.8719 52.5398 39.6832 52.2485C39.5056 51.9494 39.3169 51.6423 39.117 51.3274C38.9283 51.0125 38.7396 50.7095 38.5509 50.4182C38.3621 50.1269 38.1845 49.8553 38.018 49.6034C37.8515 49.3436 37.7072 49.1271 37.585 48.9539C37.4629 49.8986 37.3686 50.8748 37.302 51.8825C37.2464 52.8901 37.1965 53.8703 37.1521 54.8228H35.0872C35.1316 54.1458 35.1816 53.4451 35.2371 52.7209C35.3037 51.9966 35.3703 51.2802 35.4369 50.5717C35.5146 49.8553 35.5979 49.1625 35.6867 48.4933C35.7755 47.8242 35.8699 47.2062 35.9698 46.6394H37.9181Z" fill="#145540"/>
<path d="M51.7857 54.8228V46.6394H59.1959V47.9029H53.8839V49.9222H58.6131V51.1621H53.8839V53.5593H59.5956V54.8228H51.7857Z" fill="#145540"/>
<path d="M77.1091 53.7128C77.864 53.7128 78.4135 53.6223 78.7576 53.4412C79.1018 53.2601 79.2739 53.0043 79.2739 52.6736C79.2739 52.4768 79.2128 52.3076 79.0907 52.1659C78.9797 52.0242 78.8132 51.8982 78.5911 51.788C78.3802 51.6699 78.1193 51.5636 77.8085 51.4691C77.4976 51.3668 77.1424 51.2684 76.7428 51.1739C76.3431 51.0716 75.9546 50.9614 75.5771 50.8433C75.2108 50.7173 74.8833 50.5638 74.5946 50.3827C74.3171 50.2017 74.0895 49.9852 73.9119 49.7333C73.7454 49.4813 73.6621 49.1783 73.6621 48.824C73.6621 48.084 74.0229 47.5054 74.7445 47.0881C75.4661 46.663 76.4486 46.4504 77.6919 46.4504C78.4135 46.4504 79.0518 46.5095 79.6069 46.6276C80.1731 46.7378 80.6171 46.8598 80.9391 46.9936L80.2896 48.1981C79.9122 48.0486 79.4959 47.9344 79.0407 47.8557C78.5967 47.777 78.136 47.7376 77.6586 47.7376C77.0924 47.7376 76.6484 47.8203 76.3265 47.9856C76.0156 48.1509 75.8602 48.3831 75.8602 48.6823C75.8602 48.8634 75.9101 49.0208 76.0101 49.1546C76.1211 49.2806 76.2709 49.3947 76.4597 49.4971C76.6595 49.5994 76.8871 49.6939 77.1424 49.7805C77.4088 49.8671 77.6975 49.9498 78.0083 50.0285C78.5523 50.1702 79.0352 50.3158 79.457 50.4654C79.89 50.6071 80.2508 50.7803 80.5394 50.985C80.8392 51.1818 81.0667 51.418 81.2222 51.6935C81.3776 51.9612 81.4553 52.2879 81.4553 52.6736C81.4553 53.4137 81.0834 53.9883 80.3396 54.3977C79.6069 54.7992 78.5301 55 77.1091 55C76.6317 55 76.1932 54.9763 75.7936 54.9291C75.405 54.8897 75.0553 54.8386 74.7445 54.7756C74.4448 54.7126 74.1839 54.6496 73.9619 54.5867C73.7398 54.5158 73.5622 54.4528 73.429 54.3977L74.0451 53.1814C74.3449 53.2995 74.7501 53.4176 75.2607 53.5357C75.7714 53.6538 76.3875 53.7128 77.1091 53.7128Z" fill="#145540"/>
<path d="M84.9695 54.8228V46.6394H92.3797V47.9029H87.0677V49.9222H91.7969V51.1621H87.0677V53.5593H92.7793V54.8228H84.9695Z" fill="#145540"/>
<path d="M99.5723 46.5567C101.238 46.5567 102.509 46.7732 103.386 47.2062C104.274 47.6392 104.718 48.3005 104.718 49.1901C104.718 50.3001 103.946 51.0519 102.403 51.4455C102.614 51.6266 102.853 51.847 103.119 52.1068C103.386 52.3666 103.658 52.65 103.935 52.957C104.213 53.2562 104.479 53.5672 104.734 53.8899C104.99 54.2048 105.217 54.5158 105.417 54.8228H103.069C102.858 54.5394 102.631 54.256 102.387 53.9726C102.142 53.6813 101.893 53.4018 101.637 53.1342C101.393 52.8586 101.149 52.6028 100.904 52.3666C100.66 52.1226 100.433 51.9061 100.222 51.7171C100.066 51.725 99.9331 51.7289 99.8221 51.7289C99.7111 51.7289 99.6056 51.7289 99.5057 51.7289H98.4899V54.8228H96.3918V46.7575C96.9025 46.6787 97.4464 46.6276 98.0237 46.604C98.601 46.5725 99.1172 46.5567 99.5723 46.5567ZM99.7222 47.8439C99.2781 47.8439 98.8674 47.8557 98.4899 47.8793V50.5244H99.4058C99.9165 50.5244 100.366 50.5048 100.755 50.4654C101.143 50.426 101.465 50.3552 101.72 50.2528C101.987 50.1505 102.187 50.0127 102.32 49.8395C102.453 49.6663 102.52 49.4459 102.52 49.1783C102.52 48.9263 102.453 48.7138 102.32 48.5406C102.187 48.3674 101.992 48.2296 101.737 48.1273C101.493 48.0249 101.199 47.9541 100.855 47.9147C100.51 47.8675 100.133 47.8439 99.7222 47.8439Z" fill="#145540"/>
<path d="M111.859 54.8228C111.027 53.5475 110.222 52.2131 109.445 50.8197C108.679 49.4262 107.963 48.0328 107.297 46.6394H109.611C109.878 47.1905 110.15 47.7533 110.427 48.328C110.705 48.9027 110.982 49.4695 111.26 50.0285C111.537 50.5796 111.815 51.1149 112.092 51.6345C112.37 52.1541 112.642 52.6303 112.908 53.0633C113.164 52.6303 113.43 52.158 113.708 51.6463C113.985 51.1267 114.263 50.5874 114.54 50.0285C114.829 49.4695 115.112 48.9027 115.389 48.328C115.667 47.7533 115.933 47.1905 116.189 46.6394H118.437C117.76 48.0328 117.038 49.4262 116.272 50.8197C115.506 52.2131 114.707 53.5475 113.874 54.8228H111.859Z" fill="#145540"/>
<path d="M121.594 46.6394H123.692V54.8228H121.594V46.6394Z" fill="#145540"/>
<path d="M133.251 55C132.385 55 131.608 54.9055 130.919 54.7165C130.231 54.5276 129.648 54.2521 129.171 53.8899C128.693 53.5199 128.327 53.0712 128.072 52.5437C127.816 52.0163 127.689 51.4101 127.689 50.7252C127.689 50.0403 127.833 49.4341 128.122 48.9067C128.422 48.3792 128.827 47.9344 129.337 47.5723C129.848 47.2023 130.447 46.9228 131.136 46.7338C131.824 46.5449 132.562 46.4504 133.351 46.4504C133.828 46.4504 134.261 46.478 134.649 46.5331C135.038 46.5803 135.377 46.6354 135.665 46.6984C135.954 46.7614 136.192 46.8283 136.381 46.8992C136.57 46.97 136.703 47.0212 136.781 47.0527L136.165 48.269C135.898 48.1509 135.515 48.0407 135.016 47.9383C134.527 47.8281 133.994 47.773 133.417 47.773C132.918 47.773 132.451 47.836 132.018 47.962C131.585 48.08 131.208 48.2611 130.886 48.5052C130.575 48.7492 130.331 49.0562 130.153 49.4262C129.976 49.7962 129.887 50.2253 129.887 50.7134C129.887 51.1464 129.953 51.5439 130.087 51.9061C130.231 52.2682 130.448 52.5831 130.736 52.8508C131.025 53.1106 131.391 53.3152 131.835 53.4648C132.279 53.6065 132.812 53.6774 133.434 53.6774C134.178 53.6774 134.783 53.6262 135.249 53.5239C135.715 53.4137 136.076 53.3113 136.331 53.2168L136.897 54.4331C136.764 54.4961 136.581 54.5591 136.348 54.6221C136.126 54.6851 135.859 54.748 135.549 54.811C135.238 54.8661 134.888 54.9094 134.499 54.9409C134.111 54.9803 133.695 55 133.251 55Z" fill="#145540"/>
<path d="M140.406 54.8228V46.6394H147.816V47.9029H142.504V49.9222H147.233V51.1621H142.504V53.5593H148.216V54.8228H140.406Z" fill="#145540"/>
<path d="M154.626 53.7128C155.381 53.7128 155.93 53.6223 156.274 53.4412C156.618 53.2601 156.79 53.0043 156.79 52.6736C156.79 52.4768 156.729 52.3076 156.607 52.1659C156.496 52.0242 156.33 51.8982 156.108 51.788C155.897 51.6699 155.636 51.5636 155.325 51.4691C155.014 51.3668 154.659 51.2684 154.259 51.1739C153.86 51.0716 153.471 50.9614 153.094 50.8433C152.727 50.7173 152.4 50.5638 152.111 50.3827C151.834 50.2017 151.606 49.9852 151.429 49.7333C151.262 49.4813 151.179 49.1783 151.179 48.824C151.179 48.084 151.54 47.5054 152.261 47.0881C152.983 46.663 153.965 46.4504 155.209 46.4504C155.93 46.4504 156.568 46.5095 157.124 46.6276C157.69 46.7378 158.134 46.8598 158.456 46.9936L157.806 48.1981C157.429 48.0486 157.013 47.9344 156.557 47.8557C156.113 47.777 155.653 47.7376 155.175 47.7376C154.609 47.7376 154.165 47.8203 153.843 47.9856C153.532 48.1509 153.377 48.3831 153.377 48.6823C153.377 48.8634 153.427 49.0208 153.527 49.1546C153.638 49.2806 153.788 49.3947 153.976 49.4971C154.176 49.5994 154.404 49.6939 154.659 49.7805C154.925 49.8671 155.214 49.9498 155.525 50.0285C156.069 50.1702 156.552 50.3158 156.974 50.4654C157.407 50.6071 157.767 50.7803 158.056 50.985C158.356 51.1818 158.583 51.418 158.739 51.6935C158.894 51.9612 158.972 52.2879 158.972 52.6736C158.972 53.4137 158.6 53.9883 157.856 54.3977C157.124 54.7992 156.047 55 154.626 55C154.148 55 153.71 54.9763 153.31 54.9291C152.922 54.8897 152.572 54.8386 152.261 54.7756C151.961 54.7126 151.701 54.6496 151.478 54.5867C151.256 54.5158 151.079 54.4528 150.946 54.3977L151.562 53.1814C151.861 53.2995 152.267 53.4176 152.777 53.5357C153.288 53.6538 153.904 53.7128 154.626 53.7128Z" fill="#145540"/>
</svg>
