<svg width="165" height="55" viewBox="0 0 165 55" fill="none" xmlns="http://www.w3.org/2000/svg">
<path d="M47.2846 33.1464C47.1015 37.9743 50.6343 41.6741 55.7589 41.6741H76.7639C77.0113 41.6741 77.2584 41.6654 77.5047 41.6485L78.6479 35.706H57.925C56.2083 35.706 54.968 34.5988 54.7719 33.0719C52.6215 33.1225 50.4564 33.1482 48.278 33.1482C47.9466 33.1482 47.6154 33.1476 47.2846 33.1464Z" fill="#F27E00"/>
<path d="M90.7036 29.7414L92.1854 36.9869C93.509 43.4583 102.818 43.4584 106.522 36.9869L113.591 24.6336C110.575 25.4954 107.467 26.2993 104.278 27.0418L100.223 34.1268L99.0098 28.1963C96.2934 28.7555 93.5232 29.2712 90.7036 29.7414Z" fill="#F27E00"/>
<path d="M120.855 22.3888L119.078 31.6273C118.01 37.176 121.726 41.6741 127.376 41.6741H148.381C154.031 41.6741 159.477 37.176 160.545 31.6273L164.552 10.7968C165.428 6.24752 163.088 2.40447 159.103 1.16765C157.161 3.07941 154.981 4.93211 152.579 6.7181H153.492C155.611 6.7181 157.005 8.40488 156.604 10.4856L152.477 31.9384C152.077 34.0192 150.034 35.706 147.915 35.706H129.542C127.423 35.706 126.03 34.0192 126.43 31.9384L128.825 19.4895C126.262 20.5046 123.603 21.4721 120.855 22.3888Z" fill="#F27E00"/>
<path d="M55.258 29.6267C52.7992 29.6967 50.3206 29.734 47.8243 29.7376L51.4683 10.7968C52.5358 5.24809 57.9817 0.75 63.6322 0.75H82.5737L83.9285 6.71809H63.502C61.3831 6.71809 59.3408 8.40487 58.9405 10.4856L57.287 19.0806H81.8897L80.7622 24.9412H56.1594L55.258 29.6267Z" fill="#145540"/>
<path d="M154.96 0.75H135.249C129.599 0.75 124.153 5.24809 123.085 10.7968L121.617 18.4307C124.377 17.4778 127.043 16.4729 129.608 15.4195L130.558 10.4856C130.958 8.40487 133 6.71809 135.119 6.71809H146.744C149.756 4.81542 152.502 2.82244 154.96 0.75Z" fill="#145540"/>
<path d="M116.116 20.2228C113.067 21.1589 109.919 22.0345 106.679 22.8456L119.325 0.75H127.26L116.116 20.2228Z" fill="#145540"/>
<path d="M98.306 24.7552C95.5902 25.3164 92.8203 25.834 90.001 26.306L84.7742 0.75H93.3964L98.306 24.7552Z" fill="#145540"/>
<path d="M6.7145 21.6383L21.8479 8.42326L37.8338 21.6383V41.674H27.6028V31.443H16.9455V41.674H6.7145V21.6383Z" fill="#F27E00"/>
<path d="M0.187134 19.8519L21.6347 0.75L43.7639 19.1224L42.0739 21.1399L21.8768 4.22059L1.92857 21.8252L0.187134 19.8519Z" fill="#145540"/>
<path d="M6.7145 3.30775H12.2563V6.71809L6.7145 11.8336V3.30775Z" fill="#145540"/>
<path d="M8.4024 52.8836C8.49618 52.8913 8.61981 52.8989 8.77327 52.9066C8.92674 52.9066 9.13562 52.9066 9.39992 52.9066C10.4827 52.9066 11.2884 52.6617 11.817 52.1718C12.3541 51.6742 12.6227 50.9815 12.6227 50.0936C12.6227 49.1904 12.3627 48.4977 11.8426 48.0154C11.3225 47.5332 10.5168 47.2921 9.4255 47.2921C8.94805 47.2921 8.60702 47.3036 8.4024 47.3265V52.8836ZM14.3108 50.0936C14.3108 50.7825 14.1914 51.3834 13.9527 51.8962C13.714 52.4014 13.373 52.8262 12.9296 53.1707C12.4948 53.5075 11.9662 53.7601 11.3438 53.9285C10.73 54.0892 10.0479 54.1696 9.29761 54.1696C8.93953 54.1696 8.53455 54.1543 8.08268 54.1237C7.63081 54.1007 7.20026 54.0471 6.79102 53.9629V46.2358C7.20026 46.1516 7.63507 46.098 8.09547 46.075C8.55586 46.0521 8.96511 46.0406 9.32319 46.0406C10.0649 46.0406 10.7427 46.121 11.3566 46.2817C11.9705 46.4348 12.4948 46.6797 12.9296 47.0165C13.373 47.3457 13.714 47.7667 13.9527 48.2795C14.1914 48.7847 14.3108 49.3894 14.3108 50.0936Z" fill="#145540"/>
<path d="M19.7919 46.0406C21.0708 46.0406 22.047 46.2511 22.7205 46.6721C23.4026 47.0931 23.7436 47.736 23.7436 48.601C23.7436 49.6803 23.1511 50.4113 21.966 50.794C22.128 50.97 22.3113 51.1844 22.5159 51.437C22.7205 51.6895 22.9294 51.9651 23.1425 52.2636C23.3557 52.5545 23.5603 52.8568 23.7564 53.1707C23.9525 53.4769 24.1273 53.7792 24.2807 54.0777H22.4775C22.3155 53.8022 22.1408 53.5266 21.9532 53.251C21.7656 52.9678 21.5738 52.6961 21.3777 52.4359C21.1901 52.168 21.0026 51.9192 20.815 51.6895C20.6274 51.4523 20.4526 51.2418 20.2907 51.0581C20.1713 51.0657 20.069 51.0695 19.9837 51.0695C19.8985 51.0695 19.8175 51.0695 19.7407 51.0695H18.9606V54.0777H17.3492V46.2358C17.7414 46.1592 18.1592 46.1095 18.6025 46.0865C19.0459 46.0559 19.4423 46.0406 19.7919 46.0406ZM19.907 47.2921C19.566 47.2921 19.2505 47.3036 18.9606 47.3265V49.8984H19.664C20.0562 49.8984 20.4015 49.8793 20.6999 49.841C20.9983 49.8027 21.2455 49.7338 21.4416 49.6343C21.6463 49.5348 21.7997 49.4009 21.902 49.2325C22.0043 49.0641 22.0555 48.8498 22.0555 48.5895C22.0555 48.3446 22.0043 48.1379 21.902 47.9695C21.7997 47.8011 21.6505 47.6672 21.4544 47.5676C21.2669 47.4681 21.0409 47.3992 20.7766 47.361C20.5123 47.3151 20.2224 47.2921 19.907 47.2921Z" fill="#145540"/>
<path d="M33.016 54.0777C32.8966 53.7639 32.773 53.4539 32.6451 53.1477C32.5172 52.8415 32.3936 52.5277 32.2742 52.2062H28.5399C28.4205 52.5277 28.2969 52.8454 28.169 53.1592C28.0497 53.4654 27.9303 53.7716 27.8109 54.0777H26.1356C26.4681 53.2281 26.7836 52.4435 27.082 51.724C27.3804 51.0045 27.6703 50.3232 27.9516 49.6803C28.2415 49.0373 28.5271 48.4249 28.8085 47.8432C29.0898 47.2615 29.3797 46.6874 29.6781 46.121H31.2C31.4984 46.6874 31.7883 47.2615 32.0696 47.8432C32.351 48.4249 32.6323 49.0373 32.9137 49.6803C33.2035 50.3232 33.4977 51.0045 33.7961 51.724C34.103 52.4435 34.4227 53.2281 34.7552 54.0777H33.016ZM30.4071 47.6595C30.211 48.0652 29.985 48.5589 29.7293 49.1406C29.482 49.7224 29.222 50.3539 28.9491 51.0351H31.865C31.5922 50.3539 31.3279 49.7185 31.0721 49.1291C30.8163 48.5398 30.5946 48.0499 30.4071 47.6595Z" fill="#145540"/>
<path d="M37.1543 46.121H38.7657V54.0777H37.1543V46.121Z" fill="#145540"/>
<path d="M48.1398 54.0777C47.8499 53.6414 47.5259 53.1745 47.1678 52.677C46.8098 52.1718 46.4389 51.6666 46.0552 51.1614C45.6716 50.6485 45.2794 50.1548 44.8787 49.6803C44.4865 49.198 44.1113 48.7656 43.7532 48.3828V54.0777H42.1674V46.121H43.4847C43.8257 46.4424 44.1923 46.8252 44.5845 47.2691C44.9767 47.7054 45.3689 48.1609 45.7611 48.6354C46.1618 49.11 46.5454 49.5884 46.9121 50.0706C47.2872 50.5452 47.6197 50.9892 47.9096 51.4025V46.121H49.5082V54.0777H48.1398Z" fill="#145540"/>
<path d="M58.7958 54.0777C58.6765 53.7639 58.5528 53.4539 58.4249 53.1477C58.2971 52.8415 58.1734 52.5277 58.0541 52.2062H54.3198C54.2004 52.5277 54.0768 52.8454 53.9489 53.1592C53.8295 53.4654 53.7102 53.7716 53.5908 54.0777H51.9155C52.248 53.2281 52.5634 52.4435 52.8618 51.724C53.1602 51.0045 53.4501 50.3232 53.7315 49.6803C54.0213 49.0373 54.307 48.4249 54.5883 47.8432C54.8697 47.2615 55.1595 46.6874 55.458 46.121H56.9798C57.2782 46.6874 57.5681 47.2615 57.8495 47.8432C58.1308 48.4249 58.4122 49.0373 58.6935 49.6803C58.9834 50.3232 59.2775 51.0045 59.5759 51.724C59.8829 52.4435 60.2026 53.2281 60.5351 54.0777H58.7958ZM56.1869 47.6595C55.9908 48.0652 55.7649 48.5589 55.5091 49.1406C55.2619 49.7224 55.0018 50.3539 54.729 51.0351H57.6448C57.372 50.3539 57.1077 49.7185 56.8519 49.1291C56.5962 48.5398 56.3745 48.0499 56.1869 47.6595Z" fill="#145540"/>
<path d="M66.8654 47.2117C65.9532 47.2117 65.254 47.4681 64.7681 47.981C64.2906 48.4862 64.0519 49.1904 64.0519 50.0936C64.0519 50.5223 64.1073 50.9165 64.2182 51.2762C64.3375 51.6283 64.508 51.9307 64.7297 52.1833C64.9599 52.4359 65.2413 52.6349 65.5738 52.7803C65.9148 52.9181 66.3112 52.987 66.7631 52.987C67.0445 52.987 67.2875 52.9793 67.4921 52.964C67.6967 52.941 67.8587 52.9143 67.9781 52.8836V50.0247H69.5894V53.8481C69.3678 53.9246 68.9926 54.0088 68.464 54.1007C67.9354 54.1925 67.3258 54.2385 66.6352 54.2385C65.9958 54.2385 65.4118 54.1466 64.8832 53.9629C64.3546 53.7792 63.9027 53.5113 63.5276 53.1592C63.1609 52.8071 62.8753 52.3746 62.6707 51.8618C62.4661 51.3489 62.3638 50.7595 62.3638 50.0936C62.3638 49.4277 62.4746 48.8383 62.6963 48.3254C62.9265 47.8126 63.2377 47.3801 63.6299 47.028C64.0221 46.6683 64.4825 46.3965 65.0111 46.2128C65.5397 46.0291 66.1024 45.9373 66.6992 45.9373C67.1084 45.9373 67.4708 45.964 67.7862 46.0176C68.1102 46.0636 68.3873 46.1171 68.6175 46.1784C68.8477 46.2396 69.0353 46.3047 69.1802 46.3736C69.3337 46.4424 69.4402 46.4922 69.4999 46.5228L69.0139 47.7054C68.7582 47.5676 68.4384 47.4528 68.0548 47.361C67.6796 47.2615 67.2832 47.2117 66.8654 47.2117Z" fill="#145540"/>
<path d="M72.7306 54.0777V46.121H78.4216V47.3495H74.342V49.3129H77.974V50.5184H74.342V52.8492H78.7285V54.0777H72.7306Z" fill="#145540"/>
<path d="M92.1789 52.9985C92.7586 52.9985 93.1807 52.9104 93.445 52.7344C93.7093 52.5583 93.8414 52.3096 93.8414 51.9881C93.8414 51.7967 93.7945 51.6321 93.7008 51.4944C93.6155 51.3566 93.4876 51.2341 93.3171 51.1269C93.1551 51.0121 92.9547 50.9088 92.716 50.8169C92.4773 50.7174 92.2045 50.6218 91.8975 50.5299C91.5906 50.4304 91.2922 50.3232 91.0023 50.2084C90.721 50.0859 90.4695 49.9367 90.2478 49.7606C90.0346 49.5846 89.8599 49.3741 89.7234 49.1291C89.5956 48.8842 89.5316 48.5895 89.5316 48.2451C89.5316 47.5255 89.8087 46.9629 90.3629 46.5573C90.9171 46.1439 91.6716 45.9373 92.6265 45.9373C93.1807 45.9373 93.6709 45.9947 94.0972 46.1095C94.532 46.2166 94.8731 46.3353 95.1203 46.4654L94.6215 47.6365C94.3317 47.4911 94.0119 47.3801 93.6624 47.3036C93.3214 47.227 92.9675 47.1888 92.6009 47.1888C92.1661 47.1888 91.8251 47.2691 91.5778 47.4299C91.3391 47.5906 91.2197 47.8164 91.2197 48.1073C91.2197 48.2833 91.2581 48.4364 91.3348 48.5665C91.4201 48.689 91.5352 48.8 91.6801 48.8995C91.8336 48.999 92.0084 49.0909 92.2045 49.1751C92.4091 49.2593 92.6308 49.3396 92.8695 49.4162C93.2872 49.554 93.6581 49.6956 93.9821 49.841C94.3146 49.9788 94.5917 50.1472 94.8134 50.3462C95.0436 50.5376 95.2183 50.7672 95.3377 51.0351C95.4571 51.2953 95.5168 51.613 95.5168 51.9881C95.5168 52.7076 95.2311 53.2664 94.6599 53.6644C94.0972 54.0548 93.2702 54.25 92.1789 54.25C91.8123 54.25 91.4755 54.227 91.1686 54.1811C90.8702 54.1428 90.6016 54.093 90.3629 54.0318C90.1327 53.9706 89.9323 53.9093 89.7618 53.8481C89.5913 53.7792 89.4549 53.718 89.3526 53.6644L89.8258 52.4818C90.056 52.5966 90.3671 52.7114 90.7593 52.8262C91.1515 52.941 91.6247 52.9985 92.1789 52.9985Z" fill="#145540"/>
<path d="M98.2157 54.0777V46.121H103.907V47.3495H99.8271V49.3129H103.459V50.5184H99.8271V52.8492H104.214V54.0777H98.2157Z" fill="#145540"/>
<path d="M109.431 46.0406C110.71 46.0406 111.686 46.2511 112.359 46.6721C113.041 47.0931 113.382 47.736 113.382 48.601C113.382 49.6803 112.79 50.4113 111.605 50.794C111.767 50.97 111.95 51.1844 112.155 51.437C112.359 51.6895 112.568 51.9651 112.781 52.2636C112.994 52.5545 113.199 52.8568 113.395 53.1707C113.591 53.4769 113.766 53.7792 113.919 54.0777H112.116C111.954 53.8022 111.779 53.5266 111.592 53.251C111.404 52.9678 111.213 52.6961 111.016 52.4359C110.829 52.168 110.641 51.9192 110.454 51.6895C110.266 51.4523 110.091 51.2418 109.929 51.0581C109.81 51.0657 109.708 51.0695 109.622 51.0695C109.537 51.0695 109.456 51.0695 109.379 51.0695H108.599V54.0777H106.988V46.2358C107.38 46.1592 107.798 46.1095 108.241 46.0865C108.685 46.0559 109.081 46.0406 109.431 46.0406ZM109.546 47.2921C109.205 47.2921 108.889 47.3036 108.599 47.3265V49.8984H109.303C109.695 49.8984 110.04 49.8793 110.339 49.841C110.637 49.8027 110.884 49.7338 111.08 49.6343C111.285 49.5348 111.438 49.4009 111.541 49.2325C111.643 49.0641 111.694 48.8498 111.694 48.5895C111.694 48.3446 111.643 48.1379 111.541 47.9695C111.438 47.8011 111.289 47.6672 111.093 47.5676C110.906 47.4681 110.68 47.3992 110.415 47.361C110.151 47.3151 109.861 47.2921 109.546 47.2921Z" fill="#145540"/>
<path d="M118.867 54.0777C118.228 52.8377 117.609 51.5403 117.013 50.1855C116.424 48.8306 115.874 47.4758 115.363 46.121H117.14C117.345 46.6568 117.554 47.2041 117.767 47.7628C117.98 48.3216 118.193 48.8727 118.407 49.4162C118.62 49.952 118.833 50.4725 119.046 50.9777C119.259 51.4829 119.468 51.946 119.673 52.367C119.869 51.946 120.073 51.4867 120.286 50.9892C120.5 50.484 120.713 49.9597 120.926 49.4162C121.148 48.8727 121.365 48.3216 121.578 47.7628C121.791 47.2041 121.996 46.6568 122.192 46.121H123.919C123.398 47.4758 122.844 48.8306 122.256 50.1855C121.668 51.5403 121.054 52.8377 120.414 54.0777H118.867Z" fill="#145540"/>
<path d="M126.343 46.121H127.955V54.0777H126.343V46.121Z" fill="#145540"/>
<path d="M135.296 54.25C134.63 54.25 134.034 54.1581 133.505 53.9744C132.976 53.7907 132.529 53.5228 132.162 53.1707C131.796 52.8109 131.514 52.3746 131.318 51.8618C131.122 51.3489 131.024 50.7595 131.024 50.0936C131.024 49.4277 131.135 48.8383 131.357 48.3254C131.587 47.8126 131.898 47.3801 132.29 47.028C132.682 46.6683 133.143 46.3965 133.671 46.2128C134.2 46.0291 134.767 45.9373 135.372 45.9373C135.739 45.9373 136.071 45.964 136.37 46.0176C136.668 46.0636 136.928 46.1171 137.15 46.1784C137.372 46.2396 137.555 46.3047 137.7 46.3736C137.845 46.4424 137.947 46.4922 138.007 46.5228L137.534 47.7054C137.329 47.5906 137.035 47.4834 136.651 47.3839C136.276 47.2768 135.867 47.2232 135.423 47.2232C135.04 47.2232 134.682 47.2844 134.349 47.4069C134.017 47.5217 133.727 47.6978 133.479 47.9351C133.241 48.1723 133.053 48.4709 132.917 48.8306C132.78 49.1904 132.712 49.6075 132.712 50.0821C132.712 50.5031 132.763 50.8897 132.866 51.2418C132.976 51.5939 133.143 51.9 133.364 52.1603C133.586 52.4129 133.867 52.6119 134.208 52.7573C134.549 52.8951 134.959 52.964 135.436 52.964C136.007 52.964 136.472 52.9143 136.83 52.8147C137.188 52.7076 137.465 52.6081 137.661 52.5162L138.096 53.6988C137.994 53.7601 137.853 53.8213 137.674 53.8825C137.504 53.9438 137.299 54.005 137.06 54.0662C136.822 54.1198 136.553 54.1619 136.255 54.1925C135.956 54.2308 135.637 54.25 135.296 54.25Z" fill="#145540"/>
<path d="M140.791 54.0777V46.121H146.482V47.3495H142.402V49.3129H146.034V50.5184H142.402V52.8492H146.789V54.0777H140.791Z" fill="#145540"/>
<path d="M151.712 52.9985C152.291 52.9985 152.713 52.9104 152.978 52.7344C153.242 52.5583 153.374 52.3096 153.374 51.9881C153.374 51.7967 153.327 51.6321 153.233 51.4944C153.148 51.3566 153.02 51.2341 152.85 51.1269C152.688 51.0121 152.487 50.9088 152.249 50.8169C152.01 50.7174 151.737 50.6218 151.43 50.5299C151.123 50.4304 150.825 50.3232 150.535 50.2084C150.254 50.0859 150.002 49.9367 149.78 49.7606C149.567 49.5846 149.393 49.3741 149.256 49.1291C149.128 48.8842 149.064 48.5895 149.064 48.2451C149.064 47.5255 149.341 46.9629 149.896 46.5573C150.45 46.1439 151.204 45.9373 152.159 45.9373C152.713 45.9373 153.204 45.9947 153.63 46.1095C154.065 46.2166 154.406 46.3353 154.653 46.4654L154.154 47.6365C153.864 47.4911 153.545 47.3801 153.195 47.3036C152.854 47.227 152.5 47.1888 152.134 47.1888C151.699 47.1888 151.358 47.2691 151.111 47.4299C150.872 47.5906 150.752 47.8164 150.752 48.1073C150.752 48.2833 150.791 48.4364 150.868 48.5665C150.953 48.689 151.068 48.8 151.213 48.8995C151.366 48.999 151.541 49.0909 151.737 49.1751C151.942 49.2593 152.163 49.3396 152.402 49.4162C152.82 49.554 153.191 49.6956 153.515 49.841C153.847 49.9788 154.124 50.1472 154.346 50.3462C154.576 50.5376 154.751 50.7672 154.87 51.0351C154.99 51.2953 155.049 51.613 155.049 51.9881C155.049 52.7076 154.764 53.2664 154.193 53.6644C153.63 54.0548 152.803 54.25 151.712 54.25C151.345 54.25 151.008 54.227 150.701 54.1811C150.403 54.1428 150.134 54.093 149.896 54.0318C149.665 53.9706 149.465 53.9093 149.294 53.8481C149.124 53.7792 148.988 53.718 148.885 53.6644L149.358 52.4818C149.589 52.5966 149.9 52.7114 150.292 52.8262C150.684 52.941 151.157 52.9985 151.712 52.9985Z" fill="#145540"/>
</svg>
