<svg width="171" height="55" viewBox="0 0 171 55" fill="none" xmlns="http://www.w3.org/2000/svg">
<path d="M48.9005 33.4545C48.7114 38.44 52.3596 42.2606 57.6515 42.2606H79.3425C79.5981 42.2606 79.8532 42.2517 80.1075 42.2342L81.2881 36.0976H59.8884C58.1157 36.0976 56.8348 34.9543 56.6323 33.3775C54.4117 33.4298 52.1759 33.4563 49.9263 33.4563C49.584 33.4563 49.2421 33.4557 48.9005 33.4545Z" fill="#F27E00"/>
<path d="M93.7375 29.9383L95.2678 37.4204C96.6346 44.1032 106.247 44.1032 110.072 37.4204L117.373 24.6636C114.258 25.5536 111.049 26.3838 107.755 27.1505L103.568 34.4669L102.315 28.3427C99.5099 28.9202 96.6492 29.4527 93.7375 29.9383Z" fill="#F27E00"/>
<path d="M124.874 22.3456L123.038 31.8857C121.936 37.6156 125.773 42.2606 131.608 42.2606H153.299C159.134 42.2606 164.757 37.6156 165.86 31.8857L169.998 10.3749C170.902 5.67707 168.486 1.70851 164.37 0.431295C162.366 2.40548 160.114 4.3187 157.634 6.16302H158.577C160.765 6.16302 162.204 7.90489 161.79 10.0536L157.528 32.207C157.115 34.3558 155.006 36.0976 152.818 36.0976H133.845C131.656 36.0976 130.218 34.3558 130.631 32.207L133.104 19.3515C130.458 20.3998 127.712 21.3989 124.874 22.3456Z" fill="#F27E00"/>
<path d="M57.1343 29.8198C54.5952 29.8921 52.0356 29.9306 49.4578 29.9343L53.2208 10.3749C54.3231 4.645 59.947 0 65.7819 0H85.3421L86.7411 6.16301H65.6475C63.4594 6.16301 61.3505 7.90488 60.9371 10.0536L59.2295 18.9292H84.6358L83.4715 24.9813H58.0652L57.1343 29.8198Z" fill="#145540"/>
<path d="M160.092 0H139.738C133.903 0 128.279 4.645 127.177 10.3749L125.66 18.2582C128.51 17.2741 131.264 16.2365 133.913 15.1486L134.893 10.0536C135.307 7.90488 137.416 6.16301 139.604 6.16301H151.608C154.718 4.19819 157.555 2.14013 160.092 0Z" fill="#145540"/>
<path d="M119.98 20.1088C116.832 21.0755 113.58 21.9797 110.235 22.8173L123.293 0H131.488L119.98 20.1088Z" fill="#145540"/>
<path d="M101.588 24.7893C98.7837 25.3687 95.9234 25.9032 93.012 26.3907L87.6145 0H96.5183L101.588 24.7893Z" fill="#145540"/>
<path d="M7.00532 21.5705L22.633 7.92387L39.141 21.5705V42.2606H28.5759V31.6955H17.5705V42.2606H7.00532V21.5705Z" fill="#F27E00"/>
<path d="M0.264771 19.7258L22.4129 0L45.2648 18.9725L43.5196 21.0558L22.6629 3.58394L2.06308 21.7635L0.264771 19.7258Z" fill="#145540"/>
<path d="M7.00532 2.64129H12.7281V6.16301L7.00532 11.4456V2.64129Z" fill="#145540"/>
<path d="M9.54942 46.5225C10.8346 46.5225 11.8176 46.7399 12.4984 47.1746C13.1878 47.6093 13.5325 48.2891 13.5325 49.2139C13.5325 49.6961 13.4389 50.1111 13.2516 50.4589C13.0729 50.7988 12.8091 51.0794 12.4601 51.3007C12.1112 51.5141 11.6856 51.6722 11.1835 51.775C10.6814 51.8777 10.1069 51.9291 9.46006 51.9291H8.65579V54.8221H7.04724V46.724C7.42172 46.645 7.83449 46.5936 8.28557 46.5699C8.74515 46.5383 9.16644 46.5225 9.54942 46.5225ZM9.66432 47.8149C9.2558 47.8149 8.91962 47.8267 8.65579 47.8504V50.6486H9.43453C10.209 50.6486 10.8048 50.5498 11.2218 50.3522C11.6388 50.1467 11.8473 49.7633 11.8473 49.2021C11.8473 48.9333 11.792 48.7081 11.6814 48.5262C11.5707 48.3444 11.4175 48.2022 11.2218 48.0994C11.0261 47.9967 10.792 47.9255 10.5197 47.886C10.2558 47.8386 9.97071 47.8149 9.66432 47.8149Z" fill="#145540"/>
<path d="M21.8694 53.5297V54.8221H16.2778V46.6055H17.8864V53.5297H21.8694Z" fill="#145540"/>
<path d="M27.583 55C26.9788 55 26.4596 54.9209 26.0255 54.7628C25.5915 54.5968 25.2298 54.3676 24.9404 54.0751C24.6596 53.7827 24.451 53.4388 24.3149 53.0436C24.1787 52.6484 24.1106 52.2137 24.1106 51.7394V46.6055H25.7319V51.5971C25.7319 51.9686 25.7745 52.2887 25.8596 52.5575C25.9532 52.8183 26.0809 53.0318 26.2426 53.1978C26.4128 53.3637 26.6085 53.4863 26.8298 53.5653C27.0596 53.6444 27.3149 53.6839 27.5958 53.6839C27.8766 53.6839 28.132 53.6444 28.3618 53.5653C28.5916 53.4863 28.7873 53.3637 28.949 53.1978C29.1192 53.0318 29.2469 52.8183 29.332 52.5575C29.4256 52.2887 29.4724 51.9686 29.4724 51.5971V46.6055H31.0937V51.7394C31.0937 52.2137 31.0214 52.6484 30.8767 53.0436C30.7405 53.4388 30.5278 53.7827 30.2384 54.0751C29.9575 54.3676 29.5958 54.5968 29.1533 54.7628C28.7107 54.9209 28.1873 55 27.583 55Z" fill="#145540"/>
<path d="M36.355 46.6055C36.5423 46.9058 36.7508 47.2734 36.9806 47.7081C37.2104 48.1429 37.4444 48.6013 37.6827 49.0835C37.921 49.5578 38.1551 50.0439 38.3849 50.5419C38.6232 51.0319 38.8402 51.4865 39.0359 51.9054C39.2317 51.4865 39.4445 51.0319 39.6742 50.5419C39.904 50.0439 40.1381 49.5578 40.3764 49.0835C40.6147 48.6013 40.8487 48.1429 41.0785 47.7081C41.3083 47.2734 41.5168 46.9058 41.7041 46.6055H43.1594C43.236 47.2062 43.3084 47.8465 43.3764 48.5262C43.4445 49.1981 43.5041 49.8898 43.5552 50.6012C43.6148 51.3047 43.6658 52.016 43.7084 52.7353C43.7594 53.4467 43.802 54.1423 43.836 54.8221H42.253C42.219 53.8657 42.1764 52.8816 42.1254 51.8698C42.0828 50.8581 42.0147 49.8779 41.9211 48.9294C41.8275 49.1112 41.7168 49.3285 41.5892 49.5815C41.4615 49.8344 41.3253 50.1111 41.1807 50.4115C41.036 50.7039 40.887 51.0082 40.7338 51.3244C40.5892 51.6406 40.4445 51.9489 40.2998 52.2492C40.1636 52.5417 40.0359 52.8183 39.9168 53.0792C39.7976 53.3321 39.6955 53.5495 39.6104 53.7313H38.4104C38.3253 53.5495 38.2231 53.3282 38.104 53.0673C37.9848 52.8065 37.8529 52.5298 37.7082 52.2374C37.5721 51.937 37.4274 51.6287 37.2742 51.3126C37.1295 50.9964 36.9848 50.6921 36.8401 50.3996C36.6955 50.1071 36.5593 49.8344 36.4316 49.5815C36.304 49.3206 36.1933 49.1033 36.0997 48.9294C36.0061 49.8779 35.9337 50.8581 35.8827 51.8698C35.8401 52.8816 35.8018 53.8657 35.7678 54.8221H34.1848C34.2188 54.1423 34.2571 53.4388 34.2997 52.7116C34.3507 51.9844 34.4018 51.2651 34.4529 50.5537C34.5124 49.8344 34.5763 49.1388 34.6443 48.467C34.7124 47.7951 34.7848 47.1746 34.8614 46.6055H36.355Z" fill="#145540"/>
<path d="M49.6547 54.917C49.1866 54.917 48.7143 54.9012 48.2377 54.8695C47.7611 54.8458 47.3441 54.7905 46.9866 54.7035V46.724C47.1738 46.6924 47.3738 46.6648 47.5866 46.641C47.7994 46.6094 48.0164 46.5857 48.2377 46.5699C48.459 46.5541 48.676 46.5422 48.8888 46.5343C49.1101 46.5264 49.3186 46.5225 49.5143 46.5225C50.0505 46.5225 50.5484 46.562 51.008 46.641C51.4675 46.7122 51.8633 46.8347 52.1952 47.0086C52.5357 47.1825 52.7995 47.4117 52.9867 47.6963C53.174 47.9808 53.2676 48.3326 53.2676 48.7515C53.2676 49.1388 53.1655 49.4708 52.9612 49.7475C52.7654 50.0241 52.4888 50.2455 52.1314 50.4115C52.6676 50.5774 53.0633 50.8225 53.3187 51.1466C53.574 51.4706 53.7016 51.8817 53.7016 52.3797C53.7016 53.2254 53.3697 53.8617 52.7059 54.2886C52.042 54.7075 51.025 54.917 49.6547 54.917ZM48.5696 51.1228V53.6246C48.7483 53.6404 48.9398 53.6523 49.1441 53.6602C49.3484 53.6681 49.5356 53.672 49.7058 53.672C50.0377 53.672 50.3441 53.6523 50.625 53.6127C50.9143 53.5732 51.1612 53.506 51.3654 53.4112C51.5782 53.3084 51.7442 53.174 51.8633 53.0081C51.991 52.8421 52.0548 52.6286 52.0548 52.3678C52.0548 51.9014 51.8718 51.5774 51.5058 51.3956C51.1399 51.2137 50.6335 51.1228 49.9867 51.1228H48.5696ZM48.5696 49.949H49.7058C50.3186 49.949 50.7994 49.87 51.1484 49.7119C51.4973 49.5459 51.6718 49.2535 51.6718 48.8345C51.6718 48.4393 51.4888 48.1587 51.1229 47.9927C50.7654 47.8267 50.2973 47.7437 49.7186 47.7437C49.4718 47.7437 49.2505 47.7477 49.0547 47.7556C48.8675 47.7635 48.7058 47.7753 48.5696 47.7911V49.949Z" fill="#145540"/>
<path d="M56.6535 46.6055H58.2621V54.8221H56.6535V46.6055Z" fill="#145540"/>
<path d="M67.6196 54.8221C67.3303 54.3716 67.0068 53.8894 66.6494 53.3756C66.2919 52.8539 65.9217 52.3322 65.5387 51.8105C65.1557 51.2809 64.7642 50.7711 64.3642 50.281C63.9727 49.7831 63.5983 49.3365 63.2408 48.9412V54.8221H61.6578V46.6055H62.9727C63.3132 46.9375 63.6791 47.3327 64.0706 47.7911C64.4621 48.2417 64.8536 48.712 65.2451 49.2021C65.6451 49.6922 66.0281 50.1862 66.3941 50.6842C66.7685 51.1742 67.1005 51.6327 67.3898 52.0595V46.6055H68.9856V54.8221H67.6196Z" fill="#145540"/>
<path d="M76.5207 47.7319C75.61 47.7319 74.9121 47.9967 74.427 48.5262C73.9504 49.0479 73.7121 49.7751 73.7121 50.7079C73.7121 51.1505 73.7674 51.5576 73.8781 51.9291C73.9972 52.2927 74.1674 52.6049 74.3887 52.8658C74.6185 53.1266 74.8994 53.3321 75.2313 53.4823C75.5717 53.6246 75.9675 53.6957 76.4186 53.6957C76.6994 53.6957 76.942 53.6878 77.1462 53.672C77.3505 53.6483 77.5122 53.6206 77.6313 53.589V50.6367H79.2399V54.585C79.0186 54.664 78.6441 54.751 78.1165 54.8458C77.5888 54.9407 76.9803 54.9881 76.2909 54.9881C75.6526 54.9881 75.0696 54.8933 74.5419 54.7035C74.0142 54.5138 73.5632 54.2372 73.1887 53.8736C72.8227 53.51 72.5376 53.0634 72.3334 52.5338C72.1291 52.0042 72.027 51.3956 72.027 50.7079C72.027 50.0202 72.1376 49.4115 72.3589 48.8819C72.5887 48.3524 72.8993 47.9058 73.2908 47.5422C73.6823 47.1706 74.1419 46.89 74.6696 46.7003C75.1973 46.5106 75.759 46.4158 76.3547 46.4158C76.7632 46.4158 77.1249 46.4434 77.4398 46.4988C77.7633 46.5462 78.0399 46.6015 78.2697 46.6648C78.4995 46.728 78.6867 46.7952 78.8314 46.8663C78.9846 46.9375 79.091 46.9888 79.1505 47.0205L78.6654 48.2417C78.4101 48.0994 78.0909 47.9808 77.7079 47.886C77.3335 47.7832 76.9377 47.7319 76.5207 47.7319Z" fill="#145540"/>
<path d="M86.1211 52.6405C86.1211 52.3401 86.1679 52.0674 86.2615 51.8224C86.3636 51.5774 86.4956 51.356 86.6573 51.1584C86.8275 50.9608 87.019 50.7869 87.2318 50.6367C87.453 50.4865 87.6828 50.3522 87.9211 50.2336C87.6658 49.9807 87.4573 49.7119 87.2956 49.4274C87.1424 49.1428 87.0658 48.8424 87.0658 48.5262C87.0658 47.8623 87.2828 47.3445 87.7169 46.973C88.1594 46.6015 88.7382 46.4158 89.4531 46.4158C89.819 46.4158 90.1425 46.4632 90.4233 46.5581C90.7127 46.6529 90.951 46.7833 91.1382 46.9493C91.3255 47.1153 91.4659 47.3129 91.5595 47.5422C91.6616 47.7635 91.7127 48.0006 91.7127 48.2535C91.7127 48.5065 91.6659 48.7436 91.5723 48.9649C91.4872 49.1863 91.368 49.3918 91.2148 49.5815C91.0616 49.7633 90.8829 49.9332 90.6786 50.0913C90.4829 50.2415 90.2701 50.3759 90.0403 50.4944L91.7893 52.1307C91.9085 51.9251 92.0063 51.6959 92.0829 51.443C92.1595 51.1821 92.2191 50.9292 92.2617 50.6842L93.551 50.8383C93.5085 51.1545 93.4191 51.5062 93.2829 51.8935C93.1468 52.2729 92.968 52.6365 92.7468 52.9843C93.0276 53.2768 93.2957 53.5811 93.551 53.8973C93.8149 54.2056 94.0319 54.5138 94.2021 54.8221H92.5936C92.5085 54.6877 92.3978 54.5415 92.2617 54.3834C92.134 54.2253 91.9978 54.0791 91.8531 53.9447C91.5042 54.2372 91.1042 54.4743 90.6531 54.6561C90.202 54.8379 89.6914 54.9288 89.1212 54.9288C88.5509 54.9288 88.0743 54.8577 87.6913 54.7154C87.3083 54.5731 86.9977 54.3913 86.7594 54.17C86.5296 53.9487 86.3636 53.7036 86.2615 53.4349C86.1679 53.1661 86.1211 52.9013 86.1211 52.6405ZM87.602 52.5456C87.602 52.68 87.6275 52.8183 87.6786 52.9606C87.7382 53.1029 87.8275 53.2373 87.9467 53.3637C88.0743 53.4823 88.236 53.5811 88.4318 53.6602C88.636 53.7392 88.8786 53.7787 89.1595 53.7787C89.5424 53.7787 89.8871 53.7234 90.1935 53.6127C90.5084 53.5021 90.7765 53.344 90.9978 53.1385L88.7509 51.0161C88.6233 51.0794 88.4914 51.1545 88.3552 51.2414C88.219 51.3284 88.0956 51.4351 87.985 51.5615C87.8743 51.6801 87.7807 51.8224 87.7041 51.9884C87.636 52.1465 87.602 52.3322 87.602 52.5456ZM90.3722 48.3128C90.3722 48.0836 90.2914 47.8899 90.1297 47.7319C89.968 47.5659 89.7339 47.4829 89.4275 47.4829C89.1041 47.4829 88.8573 47.5738 88.6871 47.7556C88.5169 47.9374 88.4318 48.1666 88.4318 48.4433C88.4318 48.6725 88.4999 48.9017 88.636 49.1309C88.7722 49.3523 88.9594 49.5657 89.1978 49.7712C89.3595 49.6922 89.5084 49.6052 89.6446 49.5103C89.7893 49.4155 89.9127 49.3088 90.0148 49.1902C90.1254 49.0717 90.2105 48.9412 90.2701 48.799C90.3382 48.6567 90.3722 48.4946 90.3722 48.3128Z" fill="#145540"/>
<path d="M106.343 46.6055H107.951V54.8221H106.343V51.1821H102.5V54.8221H100.892V46.6055H102.5V49.8898H106.343V46.6055Z" fill="#145540"/>
<path d="M111.344 54.8221V46.6055H117.025V47.8741H112.952V49.9016H116.578V51.1466H112.952V53.5535H117.331V54.8221H111.344Z" fill="#145540"/>
<path d="M126.16 54.8221C126.041 54.498 125.918 54.1779 125.79 53.8617C125.662 53.5456 125.539 53.2215 125.42 52.8895H121.692C121.573 53.2215 121.449 53.5495 121.322 53.8736C121.203 54.1898 121.083 54.5059 120.964 54.8221H119.292C119.624 53.9447 119.939 53.1345 120.237 52.3915C120.535 51.6485 120.824 50.945 121.105 50.281C121.394 49.6171 121.679 48.9847 121.96 48.384C122.241 47.7832 122.53 47.1904 122.828 46.6055H124.347C124.645 47.1904 124.935 47.7832 125.215 48.384C125.496 48.9847 125.777 49.6171 126.058 50.281C126.347 50.945 126.641 51.6485 126.939 52.3915C127.245 53.1345 127.564 53.9447 127.896 54.8221H126.16ZM123.556 48.1943C123.36 48.6132 123.135 49.123 122.879 49.7238C122.632 50.3245 122.373 50.9766 122.101 51.6801H125.011C124.739 50.9766 124.475 50.3206 124.22 49.7119C123.964 49.1033 123.743 48.5974 123.556 48.1943Z" fill="#145540"/>
<path d="M135.734 46.6055V47.8978H133.015V54.8221H131.394V47.8978H128.675V46.6055H135.734Z" fill="#145540"/>
<path d="M138.238 46.6055H139.846V54.8221H138.238V46.6055Z" fill="#145540"/>
<path d="M149.204 54.8221C148.914 54.3716 148.591 53.8894 148.234 53.3756C147.876 52.8539 147.506 52.3322 147.123 51.8105C146.74 51.2809 146.348 50.7711 145.948 50.281C145.557 49.7831 145.182 49.3365 144.825 48.9412V54.8221H143.242V46.6055H144.557C144.897 46.9375 145.263 47.3327 145.655 47.7911C146.046 48.2417 146.438 48.712 146.829 49.2021C147.229 49.6922 147.612 50.1862 147.978 50.6842C148.353 51.1742 148.685 51.6327 148.974 52.0595V46.6055H150.57V54.8221H149.204Z" fill="#145540"/>
<path d="M158.105 47.7319C157.194 47.7319 156.496 47.9967 156.011 48.5262C155.535 49.0479 155.296 49.7751 155.296 50.7079C155.296 51.1505 155.352 51.5576 155.462 51.9291C155.581 52.2927 155.752 52.6049 155.973 52.8658C156.203 53.1266 156.484 53.3321 156.816 53.4823C157.156 53.6246 157.552 53.6957 158.003 53.6957C158.284 53.6957 158.526 53.6878 158.73 53.672C158.935 53.6483 159.096 53.6206 159.216 53.589V50.6367H160.824V54.585C160.603 54.664 160.228 54.751 159.701 54.8458C159.173 54.9407 158.564 54.9881 157.875 54.9881C157.237 54.9881 156.654 54.8933 156.126 54.7035C155.598 54.5138 155.147 54.2372 154.773 53.8736C154.407 53.51 154.122 53.0634 153.918 52.5338C153.713 52.0042 153.611 51.3956 153.611 50.7079C153.611 50.0202 153.722 49.4115 153.943 48.8819C154.173 48.3524 154.484 47.9058 154.875 47.5422C155.267 47.1706 155.726 46.89 156.254 46.7003C156.781 46.5106 157.343 46.4158 157.939 46.4158C158.347 46.4158 158.709 46.4434 159.024 46.4988C159.347 46.5462 159.624 46.6015 159.854 46.6648C160.084 46.728 160.271 46.7952 160.416 46.8663C160.569 46.9375 160.675 46.9888 160.735 47.0205L160.25 48.2417C159.994 48.0994 159.675 47.9808 159.292 47.886C158.918 47.7832 158.522 47.7319 158.105 47.7319Z" fill="#145540"/>
</svg>
