<svg width="256" height="37" viewBox="0 0 256 37" fill="none" xmlns="http://www.w3.org/2000/svg">
<g id="Group">
<path id="Vector" d="M91.1157 36.9998C87.1715 36.9998 84.1735 35.8549 82.1217 33.5592C80.0716 31.2674 79.0449 27.9758 79.0449 23.6885C79.0449 19.3208 80.1157 15.9643 82.2634 13.6151C84.4088 11.2679 87.5087 10.0942 91.5643 10.0942C94.3148 10.0942 96.7904 10.7364 98.9893 11.7553L95.8497 15.4635C93.6061 14.7753 93.039 14.6951 91.5164 14.6951C87.0045 14.6951 84.7499 17.6769 84.7499 23.6407C84.7499 26.5499 85.3109 28.7385 86.4357 30.2008C87.5583 31.665 89.2061 32.3971 91.3747 32.3971C93.842 32.3971 96.177 31.7873 98.3765 30.5659V35.3789C97.3861 35.9581 96.3302 36.3729 95.206 36.6233C94.0834 36.8756 92.7194 36.9998 91.1157 36.9998Z" fill="#EB1F40"/>
<path id="Vector_2" d="M106.673 8.54993C106.884 8.32627 107.07 8.16192 107.271 7.96118V0L101.779 2.54988V14.3416C101.953 14.1257 102.135 13.8963 102.302 13.6917C104.233 11.3063 105.688 9.59167 106.673 8.54993Z" fill="#EB1F40"/>
<path id="Vector_3" d="M114.035 21.718L124.528 10.5647H118.141L110.265 18.9216L107.129 22.819H106.987L107.271 17.8187V16.4233L101.779 22.7387V36.5299H107.271V27.6321L110.311 25.1434L118.681 36.5299H125.188L114.035 21.718Z" fill="#EB1F40"/>
<path id="Vector_4" d="M16.5055 6.52764C13.266 6.52764 10.7201 7.67066 8.86559 9.95676C7.01312 12.241 6.08589 15.3949 6.08589 19.4166C6.08589 23.6275 6.97669 26.812 8.76022 28.9719C10.5457 31.1299 13.1262 32.2099 16.5055 32.2099C17.9672 32.2099 19.3829 32.0647 20.7488 31.7761C22.1148 31.4855 23.5382 31.1147 25.0152 30.6598V35.4728C22.3121 36.4878 19.2469 36.9981 15.8216 36.9981C10.7756 36.9981 6.90196 35.4766 4.19699 32.4335C1.4939 29.3905 0.143311 25.0343 0.143311 19.3688C0.143311 15.8001 0.800405 12.6768 2.11268 10.0007C3.42495 7.32474 5.32152 5.27563 7.80621 3.84969C10.289 2.42566 13.2047 1.7146 16.5534 1.7146C20.0745 1.7146 23.3274 2.45051 26.3121 3.92041L24.2853 8.59202C23.1224 8.04342 21.8925 7.56364 20.5956 7.14885C19.2987 6.73406 17.9366 6.52764 16.5055 6.52764Z" fill="#EB1F40"/>
<path id="Vector_5" d="M51.1917 36.5298H45.6265V20.5653C45.6265 18.5621 45.2242 17.0674 44.4139 16.081C43.6036 15.0947 42.32 14.6035 40.5594 14.6035C38.2338 14.6035 36.523 15.2955 35.4311 16.6813C34.3372 18.067 33.7912 20.3876 33.7912 23.6428V36.5317H28.2509V2.54988L33.7912 0V9.27248C33.7912 10.7595 33.6973 12.348 33.5077 14.0396H33.8621C34.6169 12.7857 35.6667 11.8166 37.0096 11.1266C38.3545 10.4385 39.9215 10.0944 41.7127 10.0944C48.0308 10.0944 51.1898 13.2655 51.1898 19.6039V36.5298H51.1917Z" fill="#EB1F40"/>
<path id="Vector_6" d="M65.4749 14.2747C63.7142 14.2747 62.3044 14.831 61.2452 15.9415C60.1838 17.054 59.5517 18.673 59.3467 20.8023H71.1821C71.1491 18.6577 70.6299 17.0349 69.6264 15.9301C68.6206 14.8271 67.2357 14.2747 65.4749 14.2747ZM66.4901 37C62.4345 37 59.264 35.8225 56.9769 33.4657C54.6894 31.1108 53.5476 27.8671 53.5476 23.7364C53.5476 19.493 54.607 16.1613 56.7295 13.7357C58.8523 11.3101 61.7682 10.0963 65.4766 10.0963C68.9193 10.0963 71.6379 11.1361 73.6362 13.2196C75.6323 15.3012 76.6303 18.1645 76.6303 21.8116V24.7935H59.2547C59.3351 27.3127 60.0168 29.251 61.3064 30.6043C62.5954 31.9576 64.4097 32.6342 66.7529 32.6342C68.2927 32.6342 69.7278 32.4909 71.0554 32.2003C72.3852 31.9098 73.8103 31.43 75.3352 30.7572V35.2415C73.9845 35.8818 72.615 36.3367 71.2334 36.6024C69.8468 36.8662 68.2663 37 66.4901 37Z" fill="#EB1F40"/>
<path id="Vector_7" d="M134.557 32.5825C136.567 32.5825 138.183 32.0224 139.4 30.9042C140.618 29.7841 141.226 28.2148 141.226 26.1963V23.9446L137.88 24.0841C135.269 24.1778 133.373 24.6117 132.187 25.3858C130.999 26.1619 130.405 27.3489 130.405 28.945C130.405 30.1014 130.752 30.9979 131.442 31.6324C132.135 32.2651 133.173 32.5825 134.557 32.5825ZM142.808 36.3385L141.701 32.7239H141.511C140.254 34.3047 138.988 35.3789 137.716 35.9505C136.442 36.5239 134.806 36.8087 132.811 36.8087C130.248 36.8087 128.25 36.1205 126.811 34.7424C125.373 33.3643 124.654 31.4184 124.654 28.8971C124.654 26.2211 125.654 24.2007 127.649 22.8398C129.645 21.4788 132.685 20.7353 136.771 20.6091L141.275 20.4677V19.0819C141.275 17.4227 140.888 16.1822 140.108 15.3603C139.331 14.5383 138.122 14.1274 136.489 14.1274C135.152 14.1274 133.873 14.3242 132.647 14.7161C131.421 15.106 130.24 15.5686 129.108 16.1L127.317 12.1567C128.731 11.4208 130.279 10.8626 131.961 10.4765C133.643 10.0942 135.231 9.90112 136.724 9.90112C140.041 9.90112 142.543 10.6217 144.235 12.0611C145.923 13.5004 146.767 15.7636 146.767 18.8467V36.3366H142.808V36.3385Z" fill="#EB1F40"/>
<path id="Vector_8" d="M161.125 32.5387C162.475 32.5387 163.828 32.3284 165.179 31.906V36.0595C164.567 36.3271 163.776 36.5489 162.811 36.7286C161.843 36.9101 160.841 37 159.805 37C154.554 37 151.929 34.2436 151.929 28.7348V14.743H148.37V12.3021L152.188 10.2836L154.075 4.79199H157.492V10.5665H164.918V14.7449H157.492V28.6412C157.492 29.9716 157.826 30.9541 158.494 31.5886C159.165 32.2233 160.04 32.5387 161.125 32.5387Z" fill="#0058A2"/>
<path id="Vector_9" d="M180.335 10.0963C181.451 10.0963 182.369 10.1727 183.093 10.3314L182.551 15.4713C181.766 15.284 180.948 15.1903 180.097 15.1903C177.882 15.1903 176.085 15.9109 174.71 17.3502C173.336 18.7896 172.647 20.6609 172.647 22.9623V36.5317H167.107V10.5646H171.446L172.176 15.1426H172.459C173.325 13.5924 174.45 12.3652 175.842 11.4553C177.235 10.5493 178.731 10.0963 180.335 10.0963Z" fill="#0058A2"/>
<path id="Vector_10" d="M192.078 32.7738C194.087 32.7738 195.704 32.2138 196.921 31.0956C198.139 29.9754 198.749 28.4061 198.749 26.3877V24.136L195.4 24.2755C192.789 24.3692 190.892 24.8031 189.706 25.5772C188.519 26.3533 187.925 27.5402 187.925 29.1363C187.925 30.2928 188.271 31.1892 188.961 31.8238C189.658 32.4565 190.695 32.7738 192.078 32.7738ZM200.329 36.5298L199.222 32.9153H199.032C197.775 34.496 196.509 35.5703 195.237 36.1418C193.963 36.7152 192.327 37 190.333 37C187.77 37 185.771 36.3119 184.332 34.9338C182.894 33.5556 182.175 31.6097 182.175 29.0885C182.175 26.4125 183.176 24.3921 185.17 23.0312C187.166 21.6702 190.208 20.9266 194.292 20.8005L198.796 20.659V19.2732C198.796 17.6141 198.408 16.3735 197.63 15.5516C196.852 14.7297 195.645 14.3188 194.011 14.3188C192.674 14.3188 191.394 14.5156 190.168 14.9074C188.942 15.2974 187.762 15.76 186.629 16.2914L184.838 12.348C186.252 11.6121 187.8 11.054 189.484 10.6679C191.164 10.2856 192.752 10.0925 194.247 10.0925C197.563 10.0925 200.065 10.8131 201.756 12.2524C203.444 13.6918 204.291 15.9549 204.291 19.0381V36.5279H200.329V36.5298Z" fill="#0058A2"/>
<path id="Vector_11" d="M218.511 32.5387C220.791 32.5387 222.448 31.9022 223.487 30.6253C224.523 29.3504 225.057 27.2803 225.09 24.4169V23.6428C225.09 20.3704 224.555 18.046 223.487 16.6717C222.418 15.2935 220.743 14.6035 218.465 14.6035C216.515 14.6035 215.015 15.391 213.962 16.9642C212.91 18.5373 212.381 20.7794 212.381 23.6905C212.381 26.5711 212.892 28.7655 213.914 30.2736C214.936 31.7837 216.467 32.5387 218.511 32.5387ZM217.027 37C213.772 37 211.234 35.8264 209.412 33.4791C207.59 31.1299 206.676 27.8365 206.676 23.595C206.676 19.3382 207.6 16.0237 209.446 13.6516C211.291 11.2814 213.85 10.0944 217.12 10.0944C220.546 10.0944 223.155 11.354 224.948 13.8733H225.232C224.964 12.0116 224.831 10.5417 224.831 9.46167V2.54988L230.393 0V36.5298H226.054L225.088 33.1255H224.829C223.055 35.7079 220.452 37 217.027 37Z" fill="#0058A2"/>
<path id="Vector_12" d="M244.703 14.2747C242.943 14.2747 241.532 14.831 240.473 15.9415C239.412 17.054 238.78 18.673 238.575 20.8023H250.41C250.378 18.6577 249.859 17.0349 248.854 15.9301C247.847 14.8271 246.465 14.2747 244.703 14.2747ZM245.716 37C241.663 37 238.49 35.8225 236.203 33.4657C233.916 31.1108 232.774 27.8671 232.774 23.7364C232.774 19.493 233.833 16.1613 235.958 13.7357C238.079 11.3101 240.994 10.0963 244.703 10.0963C248.146 10.0963 250.864 11.1361 252.862 13.2196C254.859 15.3012 255.857 18.1645 255.857 21.8116V24.7935H238.481C238.559 27.3127 239.243 29.251 240.533 30.6043C241.822 31.9576 243.636 32.6342 245.979 32.6342C247.519 32.6342 248.952 32.4909 250.282 32.2003C251.611 31.9098 253.037 31.43 254.562 30.7572V35.2415C253.211 35.8818 251.841 36.3367 250.46 36.6024C249.073 36.8662 247.493 37 245.716 37Z" fill="#0058A2"/>
<path id="Vector_13" d="M91.3069 18.3729C91.1862 18.3098 90.7839 18.1932 90.3871 18.327C88.3029 19.0285 87.5771 20.3283 87.7705 22.1843C88.1017 25.3592 88.6209 26.6533 88.8413 27.3548C89.1113 28.2073 90.1821 29.228 91.2992 29.228C92.1534 29.228 93.3929 29.1172 95.46 26.8808L116.42 3.19977C116.323 3.28004 116.436 3.21697 116.407 3.21506L116.42 3.19977C115.079 3.12522 113.085 3.27431 112.183 3.44252C111.282 3.61455 110.56 3.96435 109.912 4.33326C108.081 5.38073 93.4695 22.6106 93.0787 22.6106C92.4025 22.6106 92.2322 20.896 92.0713 19.7491C91.9947 19.2063 91.8376 18.8775 91.6806 18.6921C91.6822 18.6921 91.529 18.4895 91.3069 18.3729Z" fill="#0058A2"/>
</g>
</svg>
